<svg xmlns="http://www.w3.org/2000/svg" width="788" height="634" viewBox="0 0 788 634">
<rect width="788" height="634" fill="#f5f5f5"/>
<line x1="387.7518" y1="0" x2="387.7518" y2="634" stroke="#ddd" stroke-width="1" stroke-dasharray="4,4"/>
<line x1="0" y1="342.51239999999996" x2="788" y2="342.51239999999996" stroke="#ddd" stroke-width="1" stroke-dasharray="4,4"/>
<circle cx="387.7518" cy="342.51239999999996" r="180.0" fill="none" stroke="#e0e0e0" stroke-width="0.5" stroke-dasharray="2,4"/>
<text x="571.7518" y="338.51239999999996" font-size="9" fill="#bbb" font-family="monospace">1.0</text>
<circle cx="387.7518" cy="342.51239999999996" r="234.0" fill="none" stroke="#e0e0e0" stroke-width="0.5" stroke-dasharray="2,4"/>
<text x="625.7518" y="338.51239999999996" font-size="9" fill="#bbb" font-family="monospace">1.3</text>
<circle cx="387.7518" cy="342.51239999999996" r="270.0" fill="none" stroke="#e0e0e0" stroke-width="0.5" stroke-dasharray="2,4"/>
<text x="661.7518" y="338.51239999999996" font-size="9" fill="#bbb" font-family="monospace">1.5</text>
<polygon points="387.8,252.5 465.7,297.5 465.7,387.5 387.8,432.5 309.8,387.5 309.8,297.5" fill="#1a1a1a" stroke="#666" stroke-width="2"/>
<text x="387.7518" y="346.51239999999996" text-anchor="middle" font-size="11" fill="#888" font-family="monospace">HUB</text>
<line x1="387.7518" y1="342.51239999999996" x2="121.71179999999998" y2="322.89239999999995" stroke="#ccc" stroke-width="0.5" stroke-dasharray="3,3"/>
<polygon points="121.7,274.0 164.0,298.5 164.0,347.3 121.7,371.8 79.4,347.3 79.4,298.5" fill="#1a1a1a" stroke="#666" stroke-width="1.5"/>
<text x="121.71179999999998" y="266.02239999999995" text-anchor="middle" font-size="9" fill="#999" font-family="monospace">#1 s=0.543</text>
<text x="121.71179999999998" y="276.02239999999995" text-anchor="middle" font-size="8" fill="#bbb" font-family="monospace">d=1.48 a=-176°</text>
<line x1="387.7518" y1="342.51239999999996" x2="239.07179999999997" y2="154.77239999999998" stroke="#ccc" stroke-width="0.5" stroke-dasharray="3,3"/>
<polygon points="239.1,113.6 274.7,134.2 274.7,175.3 239.1,195.9 203.5,175.3 203.5,134.2" fill="#1a1a1a" stroke="#666" stroke-width="1.5"/>
<text x="239.07179999999997" y="105.64239999999998" text-anchor="middle" font-size="9" fill="#999" font-family="monospace">#2 s=0.457</text>
<text x="239.07179999999997" y="115.64239999999998" text-anchor="middle" font-size="8" fill="#bbb" font-family="monospace">d=1.33 a=-128°</text>
<line x1="387.7518" y1="342.51239999999996" x2="513.0318" y2="135.1524" stroke="#ccc" stroke-width="0.5" stroke-dasharray="3,3"/>
<polygon points="513.0,66.0 572.9,100.6 572.9,169.7 513.0,204.3 453.1,169.7 453.1,100.6" fill="none" stroke="#8B2020" stroke-width="2"/>
<polygon points="513.0,74.5 565.6,104.8 565.6,165.5 513.0,195.8 460.5,165.5 460.5,104.8" fill="#1a1a1a" stroke="#444" stroke-width="1.5"/>
<text x="513.0318" y="66.4924" text-anchor="middle" font-size="9" fill="#999" font-family="monospace">#3 s=0.674</text>
<text x="513.0318" y="76.4924" text-anchor="middle" font-size="8" fill="#bbb" font-family="monospace">d=1.35 a=-59°</text>
<line x1="387.7518" y1="342.51239999999996" x2="653.7918" y2="311.19239999999996" stroke="#ccc" stroke-width="0.5" stroke-dasharray="3,3"/>
<polygon points="653.8,242.0 713.7,276.6 713.7,345.8 653.8,380.3 593.9,345.8 593.9,276.6" fill="none" stroke="#8B2020" stroke-width="2"/>
<polygon points="653.8,250.5 706.3,280.9 706.3,341.5 653.8,371.9 601.3,341.5 601.3,280.9" fill="#1a1a1a" stroke="#444" stroke-width="1.5"/>
<text x="653.7918" y="242.53239999999997" text-anchor="middle" font-size="9" fill="#999" font-family="monospace">#4 s=0.674</text>
<text x="653.7918" y="252.53239999999997" text-anchor="middle" font-size="8" fill="#bbb" font-family="monospace">d=1.49 a=-7°</text>
<line x1="387.7518" y1="342.51239999999996" x2="477.7518" y2="499.1123999999999" stroke="#ccc" stroke-width="0.5" stroke-dasharray="3,3"/>
<polygon points="477.8,430.0 537.6,464.5 537.6,533.7 477.8,568.3 417.9,533.7 417.9,464.5" fill="none" stroke="#8B2020" stroke-width="2"/>
<polygon points="477.8,438.5 530.3,468.8 530.3,529.4 477.8,559.8 425.2,529.4 425.2,468.8" fill="#1a1a1a" stroke="#444" stroke-width="1.5"/>
<text x="477.7518" y="430.4523999999999" text-anchor="middle" font-size="9" fill="#999" font-family="monospace">#5 s=0.674</text>
<text x="477.7518" y="440.4523999999999" text-anchor="middle" font-size="8" fill="#bbb" font-family="monospace">d=1.00 a=60°</text>
<line x1="387.7518" y1="342.51239999999996" x2="223.41179999999997" y2="502.8924" stroke="#ccc" stroke-width="0.5" stroke-dasharray="3,3"/>
<polygon points="223.4,454.0 265.7,478.5 265.7,527.3 223.4,551.8 181.1,527.3 181.1,478.5" fill="#1a1a1a" stroke="#666" stroke-width="1.5"/>
<text x="223.41179999999997" y="446.0224" text-anchor="middle" font-size="9" fill="#999" font-family="monospace">#6 s=0.543</text>
<text x="223.41179999999997" y="456.0224" text-anchor="middle" font-size="8" fill="#bbb" font-family="monospace">d=1.28 a=136°</text>
</svg>